<svg width="1238" height="337" viewBox="0 0 1238 337" fill="none" xmlns="http://www.w3.org/2000/svg">
<path d="M402 85.1818H503.941V109.291H430.292V157.982H499.225V182.091H430.292V250.636H402V85.1818Z" fill="#303031"/>
<path d="M632.019 201.473H552.982C555.526 220.697 565.481 230.309 582.845 230.309C589.432 230.309 595.27 229.048 600.359 226.527C605.449 224.006 610.164 220.067 614.505 214.709L628.427 228.655C624.086 236.061 617.649 241.97 609.116 246.382C600.734 250.794 591.527 253 581.498 253C564.283 253 550.886 247.642 541.306 236.927C531.725 226.055 526.935 211.006 526.935 191.782C526.935 172.558 531.725 157.509 541.306 146.636C551.036 135.606 564.283 130.091 581.049 130.091C597.066 130.091 609.565 135.527 618.547 146.4C627.529 157.273 632.019 172.321 632.019 191.545V201.473ZM607.545 181.382C607.545 172.085 605.15 164.836 600.359 159.636C595.569 154.436 588.908 151.836 580.375 151.836C572.591 151.836 566.304 154.594 561.514 160.109C556.874 165.467 553.955 173.03 552.757 182.8H607.545V181.382Z" fill="#303031"/>
<path d="M659.454 161.291C659.454 147.897 659.229 138.285 658.78 132.455H682.806C683.404 138.6 683.704 145.533 683.704 153.255V155.618H684.377C687.222 147.739 692.087 141.515 698.972 136.945C705.858 132.376 713.792 130.091 722.774 130.091C725.468 130.091 727.713 130.327 729.51 130.8V152.073C728.013 151.758 725.992 151.6 723.447 151.6C716.412 151.6 709.9 153.648 703.912 157.745C698.074 161.685 693.434 167.121 689.991 174.055C686.548 180.988 684.826 188.473 684.826 196.509V250.636H659.454V161.291Z" fill="#303031"/>
<path d="M784.261 253C776.926 253 770.339 251.424 764.501 248.273C758.813 244.964 754.322 240.473 751.029 234.8C747.885 229.127 746.313 222.745 746.313 215.655C746.313 203.679 750.729 194.461 759.561 188C768.543 181.539 781.192 178.309 797.508 178.309H817.043V172.873C817.043 165.782 815.097 160.345 811.205 156.564C807.313 152.782 801.849 150.891 794.814 150.891C788.078 150.891 781.716 152.23 775.728 154.909C769.89 157.43 765.025 161.133 761.133 166.018L749.457 150.182C755.145 143.721 762.031 138.758 770.115 135.291C778.198 131.824 786.73 130.091 795.712 130.091C810.382 130.091 821.833 133.794 830.067 141.2C838.3 148.448 842.416 158.691 842.416 171.927V226.291C842.416 229.6 842.716 233.618 843.314 238.345C843.913 242.915 844.587 247.012 845.335 250.636H822.657C821.31 247.327 820.337 242.364 819.738 235.745H819.289C810.606 247.249 798.93 253 784.261 253ZM790.099 232.673C797.733 232.673 804.095 230.545 809.184 226.291C814.424 221.879 817.043 216.521 817.043 210.218V196.509H796.835C788.602 196.509 782.24 198.164 777.749 201.473C773.408 204.782 771.237 209.509 771.237 215.655C771.237 221.012 772.884 225.188 776.177 228.182C779.47 231.176 784.111 232.673 790.099 232.673Z" fill="#303031"/>
<path d="M874.843 163.182C874.843 148.527 874.543 138.285 873.945 132.455H897.746C898.494 139.861 898.868 146.794 898.868 153.255H899.318C902.162 146.164 907.027 140.57 913.913 136.473C920.799 132.218 928.433 130.091 936.816 130.091C949.839 130.091 959.644 134.661 966.23 143.8C972.817 152.782 976.11 166.176 976.11 183.982V250.636H950.513V183.745C950.513 172.715 948.791 164.6 945.348 159.4C942.055 154.2 936.741 151.6 929.406 151.6C920.724 151.6 913.688 154.83 908.299 161.291C902.91 167.594 900.216 175.788 900.216 185.873V250.636H874.843V163.182Z" fill="#303031"/>
<path d="M1007.23 163.182C1007.23 149 1006.86 138.758 1006.11 132.455H1028.56C1029.31 139.23 1029.68 146.164 1029.68 153.255H1030.13C1032.68 146.006 1037.09 140.333 1043.38 136.236C1049.67 132.139 1057 130.091 1065.39 130.091C1073.47 130.091 1080.35 132.061 1086.04 136C1091.73 139.782 1095.55 145.061 1097.49 151.836C1100.49 145.061 1105.05 139.782 1111.19 136C1117.48 132.061 1124.51 130.091 1132.3 130.091C1144.72 130.091 1154.45 134.267 1161.49 142.618C1168.52 150.97 1172.04 162.63 1172.04 177.6V250.636H1146.89V180.436C1146.89 171.297 1145.02 164.206 1141.28 159.164C1137.54 154.121 1132.3 151.6 1125.56 151.6C1118.53 151.6 1112.84 154.279 1108.5 159.636C1104.31 164.836 1102.21 171.848 1102.21 180.673V250.636H1077.06V181.382C1077.06 171.77 1075.27 164.442 1071.67 159.4C1068.23 154.2 1063.21 151.6 1056.63 151.6C1049.74 151.6 1043.98 154.436 1039.34 160.109C1034.7 165.782 1032.38 172.873 1032.38 181.382V250.636H1007.23V163.182Z" fill="#303031"/>
<path d="M1221.16 116.382C1216.07 116.382 1211.95 114.964 1208.81 112.127C1205.82 109.133 1204.32 105.194 1204.32 100.309C1204.32 95.2667 1205.82 91.3273 1208.81 88.4909C1211.95 85.497 1216.07 84 1221.16 84C1226.25 84 1230.29 85.497 1233.28 88.4909C1236.43 91.3273 1238 95.2667 1238 100.309C1238 105.194 1236.43 109.133 1233.28 112.127C1230.29 114.964 1226.25 116.382 1221.16 116.382ZM1208.36 132.455H1233.96V250.636H1208.36V132.455Z" fill="#303031"/>
<rect width="329" height="337" rx="70" fill="#F4F4F4"/>
<path d="M140.591 187.201H83V84.9951C83 75.6139 85.7969 68.3311 91.3907 63.1468C96.9845 57.7156 104.485 55 113.893 55C119.233 55 124.318 55.3703 129.149 56.1109C134.234 56.8515 138.048 57.4687 140.591 57.9625V187.201ZM113.13 195.718V150.54H227.93C229.456 153.009 230.854 156.218 232.126 160.168C233.397 163.871 234.033 167.945 234.033 172.388C234.033 180.288 232.126 186.213 228.312 190.163C224.752 193.866 219.794 195.718 213.437 195.718H113.13ZM113.893 100.178V55H240.898C242.423 57.2219 243.822 60.3078 245.093 64.2577C246.364 68.2077 247 72.4046 247 76.8483C247 84.7482 245.093 90.6732 241.279 94.6232C237.719 98.3263 232.761 100.178 226.405 100.178H113.893ZM83 165.352H140.972V279.038C138.684 279.778 134.997 280.395 129.912 280.889C124.826 281.63 119.614 282 114.274 282C102.833 282 94.6961 280.025 89.8651 276.075C85.2884 272.125 83 265.336 83 255.708V165.352Z" fill="#4E5CA6"/>
</svg>
