<svg xmlns="http://www.w3.org/2000/svg" fill="rgb(156, 163, 175)" data-name="Layer 1" viewBox="0 0 512 512"><path d="M380.28,303.31h0L341,273.26a33.83,33.83,0,0,0-44.36,2.93l-15.35,15.35a79.33,79.33,0,0,1-31.88-16.22l-1.34-1.13a84.1,84.1,0,0,1-10.31-10.32l-1.09-1.3a79.29,79.29,0,0,1-16.23-31.9l15.34-15.34A33.83,33.83,0,0,0,238.74,171l-30.05-39.24a35.26,35.26,0,0,0-42.25-10.89l-4.46,2a73.89,73.89,0,0,0-44.08,65.94A196,196,0,0,0,163.79,318.9l2,2.33a204.86,204.86,0,0,0,25,25l2.33,2a196.33,196.33,0,0,0,126.08,45.93q2,0,4.09,0A73.89,73.89,0,0,0,389.21,350l2-4.46A35.28,35.28,0,0,0,380.28,303.31Zm-12.93,31.81-2,4.46a47.8,47.8,0,0,1-42.65,28.52c-1.19,0-2.38,0-3.56,0A170.29,170.29,0,0,1,209.81,328.3l-2.33-2a178.78,178.78,0,0,1-21.83-21.83l-2-2.34a170,170,0,0,1-39.8-112.91,47.81,47.81,0,0,1,28.52-42.66l4.46-2A9.32,9.32,0,0,1,188,147.53l30.05,39.24a7.75,7.75,0,0,1-.67,10.17l-20.28,20.29a13,13,0,0,0-3.64,11.28,105.34,105.34,0,0,0,23.31,50.8l1.09,1.29a110,110,0,0,0,13.47,13.47l1.34,1.13a105.37,105.37,0,0,0,50.77,23.28,13,13,0,0,0,11.29-3.64l20.29-20.29a7.76,7.76,0,0,1,10.17-.67L364.47,324A9.33,9.33,0,0,1,367.35,335.13Z"/><path d="M256,0A256,256,0,0,0,1.77,225.85,257.56,257.56,0,0,0,33.11,382l-21.6,74.37a35.59,35.59,0,0,0,44.1,44.1L130,478.89A257.47,257.47,0,0,0,256.32,512,256,256,0,0,0,437,75,254.33,254.33,0,0,0,256,0ZM418.63,418.64a227.59,227.59,0,0,1-135.53,65.77,231.26,231.26,0,0,1-144.76-30.72,13,13,0,0,0-10.28-1.32L48.36,475.52a9.59,9.59,0,0,1-11.88-11.88l23.15-79.71a13,13,0,0,0-1.32-10.28A231.26,231.26,0,0,1,27.59,228.89,230,230,0,0,1,256,26,230,230,0,0,1,418.63,418.64Z"/></svg>